<svg width="38" height="38" viewBox="0 0 38 38" fill="none" xmlns="http://www.w3.org/2000/svg">
<rect width="38" height="38" fill="#F1F0F4"/>
<path d="M25.0545 32.6073C24.2757 32.6073 23.6421 31.9688 23.6421 31.1841C23.6421 30.3994 24.2757 29.761 25.0545 29.761C25.8331 29.761 26.4665 30.3994 26.4665 31.1841C26.4665 31.9688 25.8331 32.6073 25.0545 32.6073ZM13.0939 27.9575C11.9031 27.9575 10.9342 26.9812 10.9342 25.7812C10.9342 24.5811 11.9031 23.605 13.0939 23.605C14.2848 23.605 15.2536 24.5811 15.2536 25.7812C15.2536 26.9812 14.2848 27.9575 13.0939 27.9575ZM25.1168 28.698L24.6523 25.9379C27.2809 25.2506 29.2219 22.8437 29.2219 19.9798C29.2219 16.5805 26.4874 13.8247 23.1138 13.8247C22.6457 13.8247 22.1906 13.8796 21.7525 13.98L20.8155 11.0463C21.9463 10.452 22.7206 9.2599 22.7206 7.88826C22.7206 5.92529 21.1357 4.3282 19.1878 4.3282C17.2397 4.3282 15.6549 5.92529 15.6549 7.88826C15.6549 9.8512 17.2397 11.4483 19.1878 11.4483C19.4022 11.4483 19.6118 11.4278 19.8158 11.3908L20.7463 14.3044C19.2444 14.9415 18.0497 16.1668 17.4429 17.6937L11.584 15.9061C11.586 15.8643 11.5871 15.8224 11.5871 15.7802C11.5871 14.4084 10.4797 13.2925 9.11856 13.2925C7.75739 13.2925 6.6499 14.4084 6.6499 15.7802C6.6499 17.152 7.75739 18.2678 9.11856 18.2678C10.067 18.2678 10.8917 17.7257 11.305 16.9331L17.136 18.7122C17.0511 19.1214 17.0058 19.5453 17.0058 19.9798C17.0058 20.8981 17.2068 21.7688 17.5647 22.5517L15.5589 23.7026C14.9685 22.9928 14.0828 22.5404 13.0939 22.5404C11.3206 22.5404 9.87796 23.9942 9.87796 25.7812C9.87796 27.5683 11.3206 29.022 13.0939 29.022C14.8672 29.022 16.31 27.5683 16.31 25.7812C16.31 25.372 16.2335 24.9805 16.0955 24.6196L18.0878 23.4764C19.19 25.0823 21.0295 26.1352 23.1138 26.1352C23.2812 26.1352 23.4464 26.1265 23.6102 26.1131L24.0791 28.8992C23.2016 29.2811 22.5857 30.1614 22.5857 31.1841C22.5857 32.5558 23.6932 33.6718 25.0545 33.6718C26.4155 33.6718 27.523 32.5558 27.523 31.1841C27.523 29.8336 26.4491 28.7316 25.1168 28.698Z" fill="#2F3033"/>
</svg>
